<?xml version="1.0" encoding="UTF-8" standalone="no"?>
<!-- Created with Inkscape (http://www.inkscape.org/) -->

<svg
   xmlns:dc="http://purl.org/dc/elements/1.1/"
   xmlns:cc="http://creativecommons.org/ns#"
   xmlns:rdf="http://www.w3.org/1999/02/22-rdf-syntax-ns#"
   xmlns:svg="http://www.w3.org/2000/svg"
   xmlns="http://www.w3.org/2000/svg"
   xmlns:sodipodi="http://sodipodi.sourceforge.net/DTD/sodipodi-0.dtd"
   xmlns:inkscape="http://www.inkscape.org/namespaces/inkscape"
   version="1.1"
   id="svg2"
   xml:space="preserve"
   width="15cm"
   height="15cm"
   viewBox="0 0 566.92913 566.92912"
   sodipodi:docname="apriltags0_15cm.svg"
   inkscape:version="0.92.3 (2405546, 2018-03-11)"><metadata
     id="metadata8"><rdf:RDF><cc:Work
         rdf:about=""><dc:format>image/svg+xml</dc:format><dc:type
           rdf:resource="http://purl.org/dc/dcmitype/StillImage" /><dc:title></dc:title></cc:Work></rdf:RDF></metadata><defs
     id="defs6"><inkscape:path-effect
       effect="bspline"
       id="path-effect855"
       is_visible="true"
       weight="33.333333"
       steps="2"
       helper_size="0"
       apply_no_weight="true"
       apply_with_weight="true"
       only_selected="false" /><clipPath
       clipPathUnits="userSpaceOnUse"
       id="clipPath22"><path
         d="M 0,0 H 800 V 800 H 0 Z"
         id="path20"
         inkscape:connector-curvature="0" /></clipPath></defs><sodipodi:namedview
     pagecolor="#ffffff"
     bordercolor="#666666"
     borderopacity="1"
     objecttolerance="10"
     gridtolerance="10"
     guidetolerance="10"
     inkscape:pageopacity="0"
     inkscape:pageshadow="2"
     inkscape:window-width="1920"
     inkscape:window-height="1018"
     id="namedview4"
     showgrid="false"
     units="cm"
     inkscape:zoom="0.89393939"
     inkscape:cx="269.66077"
     inkscape:cy="397.77775"
     inkscape:window-x="0"
     inkscape:window-y="32"
     inkscape:window-maximized="1"
     inkscape:current-layer="layer1" /><g
     inkscape:groupmode="layer"
     id="layer1"
     inkscape:label="low"
     transform="translate(0,-249.07088)"><rect
       style="opacity:1;fill:#ffeb95;fill-opacity:1;stroke:#000000;stroke-width:0;stroke-miterlimit:4;stroke-dasharray:none;stroke-dashoffset:0;paint-order:stroke fill markers"
       id="rect857"
       width="566.92914"
       height="566.92914"
       x="5.1403362e-07"
       y="249.07088" /></g><g
     id="g10"
     inkscape:groupmode="layer"
     inkscape:label="apriltags1-20"
     transform="matrix(1.3333333,0,0,-1.3333333,0,326.97577)"><g
       id="g12"
       transform="matrix(0.53150615,0,0,0.53150615,3.8158266e-8,-179.96778)"><g
         id="g14"><g
           id="g16"><g
             id="g18"
             clip-path="url(#clipPath22)"><g
               id="g24"
               transform="scale(0.1)"><path
                 d="M 800,4000 V 800 H 4000 7200 V 4000 7200 H 4000 800 Z m 2400,2000 v -400 h 400 400 v 400 400 h 400 400 v -800 -800 h -400 -400 v -800 -800 h 800 800 v -400 -400 h -400 -400 v -400 -400 h -400 -400 v 800 800 h -400 -400 v -400 -400 h -400 -400 v 400 400 h -400 -400 v 400 400 h 400 400 v 800 800 h -400 -400 v 400 400 h 800 800 z m 3200,-400 v -800 h -400 -400 v 800 800 h 400 400 z"
                 style="fill:#000000;fill-opacity:1;fill-rule:nonzero;stroke:none"
                 id="path26"
                 inkscape:connector-curvature="0" /><path
                 d="m 2400,3600 v -400 h 400 400 v 400 400 h -400 -400 z"
                 style="fill:#000000;fill-opacity:1;fill-rule:nonzero;stroke:none"
                 id="path28"
                 inkscape:connector-curvature="0" /></g></g></g></g></g></g></svg>