<?xml version="1.0" encoding="UTF-8" standalone="no"?>
<!-- Created with Inkscape (http://www.inkscape.org/) -->

<svg
   xmlns:dc="http://purl.org/dc/elements/1.1/"
   xmlns:cc="http://creativecommons.org/ns#"
   xmlns:rdf="http://www.w3.org/1999/02/22-rdf-syntax-ns#"
   xmlns:svg="http://www.w3.org/2000/svg"
   xmlns="http://www.w3.org/2000/svg"
   xmlns:sodipodi="http://sodipodi.sourceforge.net/DTD/sodipodi-0.dtd"
   xmlns:inkscape="http://www.inkscape.org/namespaces/inkscape"
   version="1.1"
   id="svg2"
   xml:space="preserve"
   width="15cm"
   height="15cm"
   viewBox="0 0 566.92913 566.92912"
   sodipodi:docname="Tag0.svg"
   inkscape:version="0.92.3 (2405546, 2018-03-11)"><metadata
     id="metadata8"><rdf:RDF><cc:Work
         rdf:about=""><dc:format>image/svg+xml</dc:format><dc:type
           rdf:resource="http://purl.org/dc/dcmitype/StillImage" /><dc:title></dc:title></cc:Work></rdf:RDF></metadata><defs
     id="defs6"><clipPath
       clipPathUnits="userSpaceOnUse"
       id="clipPath22"><path
         d="M 0,0 H 800 V 800 H 0 Z"
         id="path20"
         inkscape:connector-curvature="0" /></clipPath><clipPath
       clipPathUnits="userSpaceOnUse"
       id="clipPath855"><rect
         style="opacity:0.19500002;fill:#ff0000;fill-opacity:1;stroke:#000000;stroke-width:0.75118101;stroke-miterlimit:4;stroke-dasharray:none;stroke-dashoffset:0;paint-order:stroke fill markers"
         id="rect857"
         width="677.06555"
         height="677.06549"
         x="61.478149"
         y="-738.55237"
         transform="scale(1,-1)" /></clipPath></defs><sodipodi:namedview
     pagecolor="#ffffff"
     bordercolor="#666666"
     borderopacity="1"
     objecttolerance="10"
     gridtolerance="10"
     guidetolerance="10"
     inkscape:pageopacity="0"
     inkscape:pageshadow="2"
     inkscape:window-width="1920"
     inkscape:window-height="1018"
     id="namedview4"
     showgrid="false"
     units="cm"
     inkscape:zoom="1"
     inkscape:cx="344.32688"
     inkscape:cy="310.03422"
     inkscape:window-x="0"
     inkscape:window-y="32"
     inkscape:window-maximized="1"
     inkscape:current-layer="layer1" /><g
     inkscape:groupmode="layer"
     id="layer1"
     inkscape:label="low"><path
       transform="matrix(1.3333333,0,0,-1.3333333,0,326.97582)"
       style="opacity:1;fill:#ffffff;fill-opacity:1;stroke:#000000;stroke-width:0.75118107;stroke-miterlimit:4;stroke-dasharray:none;stroke-dashoffset:0;paint-order:stroke fill markers"
       d="m 0.37559053,245.60747 c 141.73228947,0 283.46457947,0 425.19686947,0 0,-141.73229 0,-283.464582 0,-425.19687 -141.73229,0 -283.46458,0 -425.19686947,0 0,141.732288 0,283.46458 0,425.19687 z"
       id="rect916"
       inkscape:connector-curvature="0" /></g><g
     id="g10"
     inkscape:groupmode="layer"
     inkscape:label="apriltags1-20"
     transform="matrix(1.3333333,0,0,-1.3333333,0,326.97582)"><g
       id="g12"
       transform="matrix(0.62007876,0,0,0.62007876,-35.433071,-215.39807)"
       clip-path="url(#clipPath855)"
       style="stroke-width:1.23379493"><g
         id="g14"
         style="stroke-width:1.23379493"><g
           id="g16"
           style="stroke-width:1.23379493"><g
             id="g18"
             clip-path="url(#clipPath22)"
             style="stroke-width:1.23379493"><g
               id="g24"
               transform="scale(0.1)"
               style="stroke-width:1.23379493"><path
                 d="M 800,4000 V 800 H 4000 7200 V 4000 7200 H 4000 800 Z m 2400,2000 v -400 h 400 400 v 400 400 h 400 400 v -800 -800 h -400 -400 v -800 -800 h 800 800 v -400 -400 h -400 -400 v -400 -400 h -400 -400 v 800 800 h -400 -400 v -400 -400 h -400 -400 v 400 400 h -400 -400 v 400 400 h 400 400 v 800 800 h -400 -400 v 400 400 h 800 800 z m 3200,-400 v -800 h -400 -400 v 800 800 h 400 400 z"
                 style="fill:#000000;fill-opacity:1;fill-rule:nonzero;stroke:none;stroke-width:1.23379493"
                 id="path26"
                 inkscape:connector-curvature="0" /><path
                 d="m 2400,3600 v -400 h 400 400 v 400 400 h -400 -400 z"
                 style="fill:#000000;fill-opacity:1;fill-rule:nonzero;stroke:none;stroke-width:1.23379493"
                 id="path28"
                 inkscape:connector-curvature="0" /></g></g></g></g></g></g></svg>